HIERARCHY
ROOT Hips
{
    OFFSET 0.000000 0.000000 0.000000
    CHANNELS 6 Xposition Yposition Zposition Zrotation Xrotation Yrotation
    JOINT Spine
    {
        OFFSET -0.000000 14.517291 0.000000
        CHANNELS 3 Zrotation Xrotation Yrotation
        JOINT Spine1
        {
            OFFSET -0.000000 37.558300 0.000000
            CHANNELS 3 Zrotation Xrotation Yrotation
            JOINT Neck
            {
                OFFSET -0.000000 37.404057 3.400369
                CHANNELS 3 Zrotation Xrotation Yrotation
                JOINT Head
                {
                    OFFSET -0.000000 24.785618 -3.540803
                    CHANNELS 3 Zrotation Xrotation Yrotation
                    End Site
                    {
                        OFFSET -0.000000 35.408028 0.000000
                    }
                }
            }
            JOINT LeftShoulder
            {
                OFFSET 6.992933 33.973492 -0.192664
                CHANNELS 3 Zrotation Xrotation Yrotation
                JOINT LeftArm
                {
                    OFFSET 21.527611 0.000000 0.000000
                    CHANNELS 3 Zrotation Xrotation Yrotation
                    JOINT LeftForeArm
                    {
                        OFFSET 56.353916 0.000000 0.000000
                        CHANNELS 3 Zrotation Xrotation Yrotation
                        JOINT LeftHand
                        {
                            OFFSET 47.774071 0.000000 0.000000
                            CHANNELS 3 Zrotation Xrotation Yrotation
                            End Site
                            {
                                OFFSET 26.556021 0.000000 0.000000
                            }
                        }
                    }
                }
            }
            JOINT RightShoulder
            {
                OFFSET -7.065357 33.973492 -0.192664
                CHANNELS 3 Zrotation Xrotation Yrotation
                JOINT RightArm
                {
                    OFFSET -21.527611 0.000000 0.000000
                    CHANNELS 3 Zrotation Xrotation Yrotation
                    JOINT RightForeArm
                    {
                        OFFSET -56.353916 0.000000 0.000000
                        CHANNELS 3 Zrotation Xrotation Yrotation
                        JOINT RightHand
                        {
                            OFFSET -47.774071 0.000000 0.000000
                            CHANNELS 3 Zrotation Xrotation Yrotation
                            End Site
                            {
                                OFFSET -26.556021 0.000000 0.000000
                            }
                        }
                    }
                }
            }
        }
    }
    JOINT LeftUpLeg
    {
        OFFSET 17.704014 0.000000 0.000000
        CHANNELS 3 Zrotation Xrotation Yrotation
        JOINT LeftLeg
        {
            OFFSET -0.000000 -81.181816 0.000000
            CHANNELS 3 Zrotation Xrotation Yrotation
            JOINT LeftFoot
            {
                OFFSET -0.000000 -62.821102 0.000000
                CHANNELS 3 Zrotation Xrotation Yrotation
                JOINT LeftToeBase
                {
                    OFFSET -0.000000 -11.507608 26.556021
                    CHANNELS 3 Zrotation Xrotation Yrotation
                    End Site
                    {
                        OFFSET -0.000000 0.000000 7.081605
                    }
                }
            }
        }
    }
    JOINT RightUpLeg
    {
        OFFSET -17.704014 0.000000 0.000000
        CHANNELS 3 Zrotation Xrotation Yrotation
        JOINT RightLeg
        {
            OFFSET -0.000000 -81.181816 0.000000
            CHANNELS 3 Zrotation Xrotation Yrotation
            JOINT RightFoot
            {
                OFFSET -0.000000 -62.821102 0.000000
                CHANNELS 3 Zrotation Xrotation Yrotation
                JOINT RightToeBase
                {
                    OFFSET -0.000000 -11.507608 26.556021
                    CHANNELS 3 Zrotation Xrotation Yrotation
                    End Site
                    {
                        OFFSET -0.000000 0.000000 7.081605
                    }
                }
            }
        }
    }
}
MOTION
Frames:    5
Frame Time:    0.008333
2.843115    155.785706    1.884768    2.584609    5.200460    -31.719063    3.376863    1.023299    0.556264    -1.608387    0.132300    0.196709    18.348984    4.696167    17.232592    -14.349617    -4.824722    13.374448    1.127067    9.112477    -14.271672    -32.832348    5.435645    -38.335846    33.918034    -43.543812    -41.380875    -20.524067    -27.302959    -36.299057    -6.014069    3.971908    -2.493190    35.438797    6.650710    78.002419    9.296935    -5.169394    88.713608    11.029226    -11.916640    23.488394    15.380850    -30.281639    1.243734    -21.936596    34.574306    -1.889154    3.731840    -8.686977    39.219418    0.000000    0.000000    0.000000    -18.361502    -1.511199    -2.252003    2.442301    27.263010    -0.758232    21.126499    -10.289691    -12.042191    0.000000    0.000000    0.000000    
2.522345    155.736618    1.282911    2.656223    5.216826    -31.709415    3.355857    1.017263    0.559981    -1.646354    0.126547    0.198018    18.316547    4.752345    17.220802    -14.396935    -4.918676    13.354905    1.082745    9.068470    -14.268916    -32.845402    5.287677    -38.302032    33.751171    -43.472843    -41.478722    -20.568684    -27.223427    -36.358074    -6.044847    3.924178    -2.448840    35.440323    6.678756    78.021751    9.254972    -5.207592    88.659767    11.024797    -11.907292    23.476299    15.540713    -30.378611    1.315824    -21.770021    34.431980    -2.018605    3.455682    -8.552463    39.208843    0.000000    0.000000    0.000000    -18.266350    -1.648742    -2.465163    2.551446    27.392344    -0.526077    20.743273    -10.887771    -12.105062    0.000000    0.000000    0.000000    
2.189031    155.705185    0.689926    2.711747    5.202069    -31.694084    3.306629    1.030861    0.544780    -1.647987    0.147931    0.193173    18.220783    4.717304    17.240334    -14.319610    -4.921777    13.393783    1.056999    9.087351    -14.229478    -32.804520    5.248380    -38.332165    33.756344    -43.499439    -41.454536    -20.525721    -27.274134    -36.360760    -6.078164    3.941643    -2.395902    35.412106    6.647987    78.068542    9.185165    -5.256890    88.626526    11.014606    -11.885869    23.469345    15.677180    -30.415314    1.337363    -21.599628    34.229836    -2.112119    3.185508    -8.395535    39.206474    0.000000    0.000000    0.000000    -18.184153    -1.717234    -2.716174    2.612583    27.452108    -0.376223    20.472742    -11.365313    -11.905502    0.000000    0.000000    0.000000    
1.864901    155.690369    0.076369    2.793679    5.234705    -31.676893    3.259207    1.019940    0.555162    -1.660796    0.125563    0.195790    18.200413    4.690502    17.239721    -14.321177    -4.895501    13.393839    1.044462    9.099142    -14.245086    -32.809277    5.146913    -38.332764    33.749828    -43.441708    -41.443520    -20.580936    -27.180546    -36.427177    -6.096466    3.952129    -2.415444    35.367867    6.684659    78.130707    9.122775    -5.345847    88.599243    11.015738    -11.909292    23.462776    15.824056    -30.506971    1.344950    -21.434391    33.995975    -2.167312    2.873181    -8.199266    39.184593    0.000000    0.000000    0.000000    -18.107164    -1.885806    -3.016237    2.712088    27.599445    -0.083957    20.111443    -11.884939    -11.893424    0.000000    0.000000    0.000000    
1.527861    155.670761    -0.529817    2.851489    5.236190    -31.670719    3.197157    1.019110    0.564284    -1.638982    0.127276    0.198963    18.130428    4.679145    17.240128    -14.279779    -4.899651    13.407130    1.009023    9.127325    -14.240288    -32.721283    5.205354    -38.348927    33.894615    -43.488083    -41.305988    -20.513239    -27.246735    -36.429249    -6.126330    3.933063    -2.379385    35.357643    6.695298    78.138115    9.072010    -5.381763    88.546097    11.029254    -11.883717    23.470819    15.977653    -30.547853    1.375569    -21.256334    33.769848    -2.259790    2.575454    -8.021149    39.167854    0.000000    0.000000    0.000000    -18.022757    -1.983635    -3.382677    2.803877    27.652609    -0.089833    19.801426    -12.262123    -11.586738    0.000000    0.000000    0.000000    
